<svg width="18" height="20" viewBox="0 0 18 20" fill="none" xmlns="http://www.w3.org/2000/svg">
<path fill-rule="evenodd" clip-rule="evenodd" d="M5.13769 20C4.72569 20 4.33469 19.968 3.96669 19.905L3.74869 19.864C1.37769 19.371 -0.000305176 17.555 -0.000305176 14.791V5.209C-0.000305176 4.875 0.0196948 4.555 0.0596948 4.249C0.408695 1.564 2.25369 0 5.13769 0H12.8627C16.0587 0 17.9697 1.92 17.9997 5.132V5.209V14.791C17.9997 18.048 16.0837 20 12.8627 20H5.13769ZM5.13769 1.457C2.68169 1.457 1.43669 2.72 1.43669 5.209V14.791C1.43669 17.28 2.68169 18.543 5.13769 18.543H12.8537C15.3087 18.543 16.5457 17.28 16.5457 14.791V5.209C16.5457 2.72 15.3087 1.457 12.8537 1.457H5.13769ZM13.3057 14.234C13.3057 13.834 12.9867 13.51 12.5927 13.51H5.38169C4.9877 13.51 4.6677 13.834 4.6677 14.234C4.6677 14.634 4.9877 14.958 5.38169 14.958H12.5927C12.9867 14.958 13.3057 14.634 13.3057 14.234ZM12.5927 9.271C12.8677 9.241 13.1367 9.373 13.2837 9.61C13.4307 9.849 13.4307 10.151 13.2837 10.39C13.1367 10.627 12.8677 10.759 12.5927 10.729H5.38169C5.01569 10.687 4.73869 10.374 4.73869 10C4.73869 9.626 5.01569 9.312 5.38169 9.271H12.5927ZM8.7767 5.771C8.7767 5.397 8.49969 5.083 8.1337 5.042H5.3907C5.02369 5.083 4.7467 5.397 4.7467 5.771C4.7467 6.144 5.02369 6.458 5.3907 6.499H8.1337C8.49969 6.458 8.7767 6.144 8.7767 5.771Z" fill="#A6A6A6"/>
</svg>
