<svg width="21" height="26" viewBox="0 0 21 26" fill="none" xmlns="http://www.w3.org/2000/svg">
<path d="M0.000488281 23.7688C0.000488281 24.454 0.816037 24.8114 1.3198 24.3468C2.14985 23.5763 3.43025 23.566 4.2726 24.3228L5.94327 25.8135C6.22196 26.063 6.64427 26.0621 6.92153 25.8109L8.56788 24.3256C9.40336 23.5686 10.6766 23.5686 11.5121 24.3256L13.1584 25.8109C13.4357 26.0618 13.858 26.063 14.1367 25.8135L15.8074 24.3225C16.6497 23.5657 17.9304 23.5763 18.7602 24.3468C19.2639 24.8114 20.0795 24.454 20.0795 23.7688V5C20.0795 2.23858 17.8409 0 15.0795 0H5.00049C2.23907 0 0.000488281 2.23858 0.000488281 5V23.7688ZM5.14356 8.48041H14.5447C14.9493 8.48041 15.2772 8.8086 15.2772 9.21289C15.2772 9.61747 14.9493 9.94536 14.5447 9.94536H5.14356C4.73898 9.94536 4.41108 9.61747 4.41108 9.21289C4.41108 8.8086 4.73898 8.48041 5.14356 8.48041ZM5.14356 13.5728H14.5447C14.9493 13.5728 15.2772 13.9007 15.2772 14.3053C15.2772 14.7099 14.9493 15.0378 14.5447 15.0378H5.14356C4.73898 15.0378 4.41108 14.7099 4.41108 14.3053C4.41108 13.9007 4.73898 13.5728 5.14356 13.5728Z" fill="#00A795"/>
</svg>
