<svg width="64" height="64" viewBox="0 0 64 64" fill="none" xmlns="http://www.w3.org/2000/svg">
<defs>
<filter id="filter0_d_155_4206" x="0" y="0.0366211" width="64" height="63.9634" filterUnits="userSpaceOnUse" color-interpolation-filters="sRGB">
<feFlood flood-opacity="0" result="BackgroundImageFix"/>
<feColorMatrix in="SourceAlpha" type="matrix" values="0 0 0 0 0 0 0 0 0 0 0 0 0 0 0 0 0 0 127 0" result="hardAlpha"/>
<feOffset dx="2" dy="4"/>
<feGaussianBlur stdDeviation="10"/>
<feColorMatrix type="matrix" values="0 0 0 0 0 0 0 0 0 0 0 0 0 0 0 0 0 0 0.1 0"/>
<feBlend mode="normal" in2="BackgroundImageFix" result="effect1_dropShadow_155_4206"/>
<feBlend mode="normal" in="SourceGraphic" in2="effect1_dropShadow_155_4206" result="shape"/>
</filter>
<filter id="filter1_d_155_4206" x="17.125" y="17.6367" width="12.25" height="9" filterUnits="userSpaceOnUse" color-interpolation-filters="sRGB">
<feFlood flood-opacity="0" result="BackgroundImageFix"/>
<feColorMatrix in="SourceAlpha" type="matrix" values="0 0 0 0 0 0 0 0 0 0 0 0 0 0 0 0 0 0 127 0" result="hardAlpha"/>
<feOffset dy="1"/>
<feColorMatrix type="matrix" values="0 0 0 0 0 0 0 0 0 0 0 0 0 0 0 0 0 0 0.06 0"/>
<feBlend mode="normal" in2="BackgroundImageFix" result="effect1_dropShadow_155_4206"/>
<feBlend mode="normal" in="SourceGraphic" in2="effect1_dropShadow_155_4206" result="shape"/>
</filter>
<linearGradient id="paint0_linear_155_4206" x1="17.125" y1="17.6367" x2="17.125" y2="25.6367" gradientUnits="userSpaceOnUse">
<stop stop-color="white"/>
<stop offset="1" stop-color="#F0F0F0"/>
</linearGradient>
</defs>
<g filter="url(#filter0_d_155_4206)">
<mask id="mask0_155_4206" style="mask-type:alpha" maskUnits="userSpaceOnUse" x="18" y="16" width="24" height="24">
<circle cx="30" cy="28" r="12" fill="#C4C4C4"/>
</mask>
<g mask="url(#mask0_155_4206)">
<rect x="15.375" y="16.0366" width="36.75" height="24" rx="2" fill="white"/>
<mask id="mask1_155_4206" style="mask-type:alpha" maskUnits="userSpaceOnUse" x="15" y="16" width="38" height="25">
<rect x="15.375" y="16.0366" width="36.75" height="24" rx="2" fill="white"/>
</mask>
<g mask="url(#mask1_155_4206)">
<path fill-rule="evenodd" clip-rule="evenodd" d="M52.125 16.0366H15.375V17.6366H52.125V16.0366ZM52.125 19.2366H15.375V20.8366H52.125V19.2366ZM15.375 22.4366H52.125V24.0366H15.375V22.4366ZM52.125 25.6366H15.375V27.2366H52.125V25.6366ZM15.375 28.8366H52.125V30.4366H15.375V28.8366ZM52.125 32.0366H15.375V33.6366H52.125V32.0366ZM15.375 35.2367H52.125V36.8366H15.375V35.2367ZM52.125 38.4366H15.375V40.0366H52.125V38.4366Z" fill="#D02F44"/>
<rect x="15.375" y="16.0366" width="15.75" height="11.2" fill="#46467F"/>
<g filter="url(#filter1_d_155_4206)">
<path fill-rule="evenodd" clip-rule="evenodd" d="M18.875 18.4367C18.875 18.8785 18.4832 19.2367 18 19.2367C17.5168 19.2367 17.125 18.8785 17.125 18.4367C17.125 17.9949 17.5168 17.6367 18 17.6367C18.4832 17.6367 18.875 17.9949 18.875 18.4367ZM22.375 18.4367C22.375 18.8785 21.9833 19.2367 21.5 19.2367C21.0168 19.2367 20.625 18.8785 20.625 18.4367C20.625 17.9949 21.0168 17.6367 21.5 17.6367C21.9833 17.6367 22.375 17.9949 22.375 18.4367ZM24.9999 19.2367C25.4831 19.2367 25.8749 18.8785 25.8749 18.4367C25.8749 17.9949 25.4831 17.6367 24.9999 17.6367C24.5166 17.6367 24.1249 17.9949 24.1249 18.4367C24.1249 18.8785 24.5166 19.2367 24.9999 19.2367ZM29.375 18.4367C29.375 18.8785 28.9832 19.2367 28.5 19.2367C28.0167 19.2367 27.625 18.8785 27.625 18.4367C27.625 17.9949 28.0167 17.6367 28.5 17.6367C28.9832 17.6367 29.375 17.9949 29.375 18.4367ZM19.75 20.8367C20.2333 20.8367 20.625 20.4786 20.625 20.0367C20.625 19.5949 20.2333 19.2367 19.75 19.2367C19.2668 19.2367 18.875 19.5949 18.875 20.0367C18.875 20.4786 19.2668 20.8367 19.75 20.8367ZM24.125 20.0367C24.125 20.4786 23.7333 20.8367 23.25 20.8367C22.7668 20.8367 22.375 20.4786 22.375 20.0367C22.375 19.5949 22.7668 19.2367 23.25 19.2367C23.7333 19.2367 24.125 19.5949 24.125 20.0367ZM26.75 20.8367C27.2332 20.8367 27.625 20.4786 27.625 20.0367C27.625 19.5949 27.2332 19.2367 26.75 19.2367C26.2667 19.2367 25.875 19.5949 25.875 20.0367C25.875 20.4786 26.2667 20.8367 26.75 20.8367ZM29.375 21.6367C29.375 22.0786 28.9832 22.4367 28.5 22.4367C28.0167 22.4367 27.625 22.0786 27.625 21.6367C27.625 21.1949 28.0167 20.8367 28.5 20.8367C28.9832 20.8367 29.375 21.1949 29.375 21.6367ZM24.9999 22.4367C25.4831 22.4367 25.8749 22.0786 25.8749 21.6367C25.8749 21.1949 25.4831 20.8367 24.9999 20.8367C24.5166 20.8367 24.1249 21.1949 24.1249 21.6367C24.1249 22.0786 24.5166 22.4367 24.9999 22.4367ZM22.375 21.6367C22.375 22.0786 21.9833 22.4367 21.5 22.4367C21.0168 22.4367 20.625 22.0786 20.625 21.6367C20.625 21.1949 21.0168 20.8367 21.5 20.8367C21.9833 20.8367 22.375 21.1949 22.375 21.6367ZM18 22.4367C18.4832 22.4367 18.875 22.0786 18.875 21.6367C18.875 21.1949 18.4832 20.8367 18 20.8367C17.5168 20.8367 17.125 21.1949 17.125 21.6367C17.125 22.0786 17.5168 22.4367 18 22.4367ZM20.625 23.2367C20.625 23.6785 20.2333 24.0367 19.75 24.0367C19.2668 24.0367 18.875 23.6785 18.875 23.2367C18.875 22.7949 19.2668 22.4367 19.75 22.4367C20.2333 22.4367 20.625 22.7949 20.625 23.2367ZM23.25 24.0367C23.7333 24.0367 24.125 23.6785 24.125 23.2367C24.125 22.7949 23.7333 22.4367 23.25 22.4367C22.7668 22.4367 22.375 22.7949 22.375 23.2367C22.375 23.6785 22.7668 24.0367 23.25 24.0367ZM27.625 23.2367C27.625 23.6785 27.2332 24.0367 26.75 24.0367C26.2667 24.0367 25.875 23.6785 25.875 23.2367C25.875 22.7949 26.2667 22.4367 26.75 22.4367C27.2332 22.4367 27.625 22.7949 27.625 23.2367ZM28.5 25.6367C28.9832 25.6367 29.375 25.2785 29.375 24.8367C29.375 24.3949 28.9832 24.0367 28.5 24.0367C28.0167 24.0367 27.625 24.3949 27.625 24.8367C27.625 25.2785 28.0167 25.6367 28.5 25.6367ZM25.8749 24.8367C25.8749 25.2785 25.4831 25.6367 24.9999 25.6367C24.5166 25.6367 24.1249 25.2785 24.1249 24.8367C24.1249 24.3949 24.5166 24.0367 24.9999 24.0367C25.4831 24.0367 25.8749 24.3949 25.8749 24.8367ZM21.5 25.6367C21.9833 25.6367 22.375 25.2785 22.375 24.8367C22.375 24.3949 21.9833 24.0367 21.5 24.0367C21.0168 24.0367 20.625 24.3949 20.625 24.8367C20.625 25.2785 21.0168 25.6367 21.5 25.6367ZM18.875 24.8367C18.875 25.2785 18.4832 25.6367 18 25.6367C17.5168 25.6367 17.125 25.2785 17.125 24.8367C17.125 24.3949 17.5168 24.0367 18 24.0367C18.4832 24.0367 18.875 24.3949 18.875 24.8367Z" fill="url(#paint0_linear_155_4206)"/>
</g>
</g>
</g>
</g>
</svg>
