<svg width="14" height="16" viewBox="0 0 14 16" fill="none" xmlns="http://www.w3.org/2000/svg">
<path fill-rule="evenodd" clip-rule="evenodd" d="M4.69431 11.2925H8.73391C9.03837 11.2925 9.29084 11.0375 9.29084 10.73C9.29084 10.4225 9.03837 10.175 8.73391 10.175H4.69431C4.38985 10.175 4.13738 10.4225 4.13738 10.73C4.13738 11.0375 4.38985 11.2925 4.69431 11.2925ZM7.20421 6.425H4.69431C4.38985 6.425 4.13738 6.68 4.13738 6.9875C4.13738 7.295 4.38985 7.5425 4.69431 7.5425H7.20421C7.50866 7.5425 7.76114 7.295 7.76114 6.9875C7.76114 6.68 7.50866 6.425 7.20421 6.425ZM12.5036 5.76921C12.6781 5.76719 12.8682 5.765 13.0408 5.765C13.2265 5.765 13.375 5.915 13.375 6.1025V12.1325C13.375 13.9925 11.8824 15.5 10.0408 15.5H4.12995C2.19926 15.5 0.625 13.9175 0.625 11.9675V3.8825C0.625 2.0225 2.125 0.5 3.97401 0.5H7.93936C8.13243 0.5 8.28094 0.6575 8.28094 0.845V3.26C8.28094 4.6325 9.40223 5.7575 10.7611 5.765C11.0786 5.765 11.3584 5.76737 11.6033 5.76945C11.7938 5.77106 11.9632 5.7725 12.1126 5.7725C12.2183 5.7725 12.3553 5.77092 12.5036 5.76921ZM12.7083 4.6745C12.0979 4.67675 11.3784 4.6745 10.8608 4.66925C10.0395 4.66925 9.36302 3.986 9.36302 3.1565V1.1795C9.36302 0.85625 9.75139 0.69575 9.97342 0.929C10.3753 1.35106 10.9276 1.93122 11.4774 2.50872C12.0257 3.08471 12.5715 3.65804 12.963 4.06925C13.1799 4.2965 13.0209 4.67375 12.7083 4.6745Z" fill="#00A795"/>
</svg>
