<svg width="16" height="20" viewBox="0 0 16 20" fill="none" xmlns="http://www.w3.org/2000/svg">
<path fill-rule="evenodd" clip-rule="evenodd" d="M5.01434 0H10.9857C14.0482 0 16 1.43503 16 4.25765V18.3309C16 18.7736 15.8285 19.1982 15.5232 19.5112C15.2179 19.8242 14.8038 20.0001 14.3608 20C14.0965 19.9957 13.8368 19.9291 13.5863 19.7971L7.974 16.6635L2.38442 19.8037C1.7112 20.1624 0.895445 19.9969 0.384308 19.3975L0.286275 19.2719L0.192626 19.1174C0.0704155 18.8782 0.00448265 18.613 0 18.3309V4.43434C0 1.49929 1.90915 0 5.01434 0ZM10.9857 1.44775H5.01434C2.61925 1.44775 1.41205 2.39579 1.41205 4.43434L1.41195 18.3189C1.41223 18.3359 1.414 18.3528 1.4154 18.3662C1.41764 18.3876 1.41894 18.4 1.41172 18.3897L1.44919 18.4519C1.51373 18.5421 1.63485 18.5715 1.71962 18.5265L7.30683 15.3883C7.72327 15.1576 8.22503 15.1576 8.64351 15.3894L14.2463 18.5173C14.2887 18.5397 14.3355 18.5517 14.372 18.5523C14.4293 18.5523 14.4842 18.529 14.5247 18.4875C14.5652 18.446 14.588 18.3897 14.588 18.3309V4.25765C14.588 2.35788 13.35 1.44775 10.9857 1.44775Z" fill="#A6A6A6"/>
</svg>
