<svg width="41" height="41" viewBox="0 0 41 41" fill="none" xmlns="http://www.w3.org/2000/svg">
<path d="M20.0808 34.4493C15.0808 34.4493 10.6608 31.8893 8.08081 28.0493C8.14081 24.0493 16.0808 21.8493 20.0808 21.8493C24.0808 21.8493 32.0208 24.0493 32.0808 28.0493C29.5008 31.8893 25.0808 34.4493 20.0808 34.4493ZM20.0808 6.04932C21.6721 6.04932 23.1982 6.68146 24.3235 7.80668C25.4487 8.9319 26.0808 10.458 26.0808 12.0493C26.0808 13.6406 25.4487 15.1667 24.3235 16.292C23.1982 17.4172 21.6721 18.0493 20.0808 18.0493C18.4895 18.0493 16.9634 17.4172 15.8382 16.292C14.713 15.1667 14.0808 13.6406 14.0808 12.0493C14.0808 10.458 14.713 8.9319 15.8382 7.80668C16.9634 6.68146 18.4895 6.04932 20.0808 6.04932ZM20.0808 0.0493164C17.4544 0.0493164 14.8537 0.566632 12.4271 1.57173C10.0006 2.57682 7.79585 4.05001 5.93867 5.90718C2.18795 9.65791 0.0808105 14.745 0.0808105 20.0493C0.0808105 25.3537 2.18795 30.4407 5.93867 34.1915C7.79585 36.0486 10.0006 37.5218 12.4271 38.5269C14.8537 39.532 17.4544 40.0493 20.0808 40.0493C25.3851 40.0493 30.4722 37.9422 34.2229 34.1915C37.9737 30.4407 40.0808 25.3537 40.0808 20.0493C40.0808 8.98932 31.0808 0.0493164 20.0808 0.0493164Z" fill="#00A795"/>
</svg>
