<svg width="16" height="20" viewBox="0 0 16 20" fill="none" xmlns="http://www.w3.org/2000/svg">
<mask id="path-1-inside-1_155_2195" fill="white">
<path d="M11.07 0H4.9C2.2 0 0 1.07 0 3.79V18.97C0 19.53 0.45 19.99 1.01 19.99C1.18 19.99 1.351 19.939 1.5 19.86L7.99 16.62L14.47 19.86C14.71 20 15 20.04 15.26 19.96C15.53 19.88 15.75 19.7 15.88 19.46C15.96 19.31 16 19.14 16 18.97V3.79C15.97 1.07 13.78 0 11.07 0Z"/>
</mask>
<path d="M1.5 19.86L1.05334 18.9653L1.04238 18.9708L1.03157 18.9765L1.5 19.86ZM7.99 16.62L8.43721 15.7256L7.99034 15.5021L7.54334 15.7253L7.99 16.62ZM14.47 19.86L14.9739 18.9962L14.946 18.98L14.9172 18.9656L14.47 19.86ZM15.26 19.96L14.9759 19.0011L14.9659 19.0042L15.26 19.96ZM15.88 19.46L16.7593 19.9363L16.7624 19.9306L15.88 19.46ZM16 3.79H17.0001L16.9999 3.77897L16 3.79ZM11.07 -1H4.9V1H11.07V-1ZM4.9 -1C3.44197 -1 1.98985 -0.714924 0.872649 0.0498067C-0.29955 0.852185 -1 2.11526 -1 3.79H1C1 2.74474 1.39955 2.11281 2.00235 1.70019C2.66015 1.24992 3.65803 1 4.9 1V-1ZM-1 3.79V18.97H1V3.79H-1ZM-1 18.97C-1 20.0694 -0.115069 20.99 1.01 20.99V18.99C1.00864 18.99 1.00842 18.9899 1.00896 18.99C1.00944 18.9901 1.00989 18.9902 1.01014 18.9904C1.01055 18.9905 1.00914 18.99 1.0069 18.9877C1.00463 18.9854 1.00283 18.9827 1.00172 18.98C1.00087 18.978 1 18.9751 1 18.97H-1ZM1.01 20.99C1.37409 20.99 1.70504 20.8832 1.96843 20.7435L1.03157 18.9765C1.01734 18.984 1.00561 18.9883 0.998772 18.9901C0.99187 18.992 0.995662 18.99 1.01 18.99V20.99ZM1.94666 20.7547L8.43666 17.5147L7.54334 15.7253L1.05334 18.9653L1.94666 20.7547ZM7.54279 17.5144L14.0228 20.7544L14.9172 18.9656L8.43721 15.7256L7.54279 17.5144ZM13.9661 20.7238C14.4295 20.9941 15.0076 21.0839 15.5541 20.9158L14.9659 19.0042C14.9806 18.9997 14.9878 19.001 14.9861 19.0008C14.9854 19.0007 14.9837 19.0004 14.9812 18.9996C14.9787 18.9987 14.9762 18.9976 14.9739 18.9962L13.9661 20.7238ZM15.5441 20.9188C16.0677 20.7636 16.5023 20.4106 16.7593 19.9363L15.0007 18.9837C14.9986 18.9877 14.9961 18.9905 14.9933 18.9928C14.9906 18.995 14.9854 18.9984 14.9759 19.0012L15.5441 20.9188ZM16.7624 19.9306C16.9241 19.6272 17 19.2942 17 18.97H15C15 18.9769 14.9992 18.9828 14.9981 18.9869C14.9972 18.991 14.9965 18.9916 14.9976 18.9894L16.7624 19.9306ZM17 18.97V3.79H15V18.97H17ZM16.9999 3.77897C16.9815 2.10851 16.2765 0.849576 15.1038 0.0490672C13.9845 -0.714909 12.5331 -1 11.07 -1V1C12.3169 1 13.3155 1.24991 13.9762 1.70093C14.5835 2.11542 14.9885 2.75149 15.0001 3.80103L16.9999 3.77897Z" fill="white" mask="url(#path-1-inside-1_155_2195)"/>
</svg>
