<svg width="12" height="14" viewBox="0 0 12 14" fill="none" xmlns="http://www.w3.org/2000/svg">
<path fill-rule="evenodd" clip-rule="evenodd" d="M8.94059 0.845908L8.94125 1.34566C10.7777 1.48959 11.9908 2.74096 11.9927 4.66L12 10.2772C12.0026 12.3695 10.6882 13.6568 8.5812 13.6602L3.43459 13.6668C1.3408 13.6695 0.00987771 12.3515 0.00724484 10.2532L4.43317e-06 4.70198C-0.00262844 2.77028 1.16768 1.52224 3.00411 1.35365L3.00346 0.853904C3.0028 0.560717 3.22001 0.340161 3.50963 0.340161C3.79924 0.339495 4.01645 0.559384 4.01711 0.852571L4.01777 1.319L7.92759 1.31367L7.92693 0.84724C7.92627 0.554054 8.14349 0.334164 8.4331 0.333498C8.71614 0.332831 8.93993 0.552721 8.94059 0.845908ZM1.01431 4.90787L10.9797 4.89455V4.66133C10.9514 3.22871 10.2327 2.47709 8.94255 2.36515L8.94321 2.87822C8.94321 3.16475 8.72008 3.39196 8.43704 3.39196C8.14743 3.39263 7.92956 3.16608 7.92956 2.87955L7.9289 2.33983L4.01908 2.34516L4.01974 2.88422C4.01974 3.17141 3.80318 3.39796 3.51357 3.39796C3.22395 3.39863 3.00608 3.17274 3.00608 2.88555L3.00542 2.37248C1.7219 2.50108 1.01168 3.25537 1.01365 4.70064L1.01431 4.90787ZM8.15993 7.93636V7.94369C8.16652 8.2502 8.41664 8.48275 8.72008 8.47609C9.01628 8.46876 9.25257 8.21488 9.24599 7.90837C9.23217 7.61518 8.99455 7.37597 8.69901 7.37664C8.39623 7.3833 8.15928 7.62984 8.15993 7.93636ZM8.70362 10.9282C8.40084 10.9215 8.15664 10.669 8.15598 10.3625C8.1494 10.056 8.39228 9.80209 8.69506 9.79476H8.70164C9.011 9.79476 9.26179 10.0473 9.26179 10.3605C9.26244 10.6737 9.01232 10.9275 8.70362 10.9282ZM5.44808 7.94702C5.46124 8.25353 5.71202 8.49274 6.01481 8.47942C6.311 8.46542 6.5473 8.21222 6.53414 7.9057C6.5269 7.60585 6.28336 7.37264 5.98716 7.3733C5.68438 7.38663 5.44742 7.6405 5.44808 7.94702ZM6.01743 10.8982C5.71465 10.9115 5.46453 10.6723 5.45071 10.3658C5.45071 10.0593 5.68701 9.80609 5.98979 9.79209C6.28599 9.79143 6.53019 10.0246 6.53677 10.3238C6.55059 10.631 6.31363 10.8842 6.01743 10.8982ZM2.7362 7.97034C2.74937 8.27685 3.00015 8.51673 3.30293 8.50274C3.59913 8.48941 3.83543 8.23554 3.82161 7.92903C3.81502 7.62918 3.57148 7.39596 3.27463 7.39663C2.97185 7.40995 2.73555 7.66383 2.7362 7.97034ZM3.30558 10.9015C3.0028 10.9155 2.75267 10.6757 2.73885 10.3691C2.73819 10.0626 2.97515 9.80875 3.27793 9.79542C3.57413 9.79476 3.81833 10.028 3.82491 10.3278C3.83873 10.6343 3.60243 10.8882 3.30558 10.9015Z" fill="#A5A5A5"/>
</svg>
