<svg width="20" height="20" viewBox="0 0 20 20" fill="none" xmlns="http://www.w3.org/2000/svg">
<path fill-rule="evenodd" clip-rule="evenodd" d="M9.99976 0.000488281C4.47654 0.000488281 -0.000244141 4.47727 -0.000244141 10.0005C-0.000244141 15.5237 4.47654 20.0005 9.99976 20.0005C15.523 20.0005 19.9998 15.5237 19.9998 10.0005C19.9998 4.47727 15.523 0.000488281 9.99976 0.000488281ZM9.99976 1.50049C14.6945 1.50049 18.4998 5.3057 18.4998 10.0005C18.4998 14.6953 14.6945 18.5005 9.99976 18.5005C5.30497 18.5005 1.49976 14.6953 1.49976 10.0005C1.49976 5.3057 5.30497 1.50049 9.99976 1.50049ZM10.4045 5.74512C10.3548 5.37904 10.0411 5.09689 9.66136 5.09689C9.24714 5.09689 8.91136 5.43267 8.91136 5.84689V10.6939L8.91971 10.8056C8.95284 11.0257 9.08269 11.222 9.27712 11.338L13.0471 13.587L13.138 13.6332C13.4779 13.7781 13.8809 13.6532 14.0755 13.3271L14.1217 13.2362C14.2666 12.8964 14.1417 12.4933 13.8156 12.2988L10.411 10.267L10.4114 5.84689L10.4045 5.74512Z" fill="#A6A6A6"/>
</svg>
