<svg width="18" height="16" viewBox="0 0 18 16" fill="none" xmlns="http://www.w3.org/2000/svg">
<path fill-rule="evenodd" clip-rule="evenodd" d="M6.39795 3.31547C6.39795 4.87102 5.11555 6.13184 3.53223 6.13184C1.94983 6.13184 0.666504 4.87102 0.666504 3.31547C0.666504 1.76082 1.94983 0.5 3.53223 0.5C5.11555 0.5 6.39795 1.76082 6.39795 3.31547ZM16.0776 2.08194C16.7702 2.08194 17.3332 2.63502 17.3332 3.31547C17.3332 3.99682 16.7702 4.54991 16.0776 4.54991H10.598C9.90451 4.54991 9.34155 3.99682 9.34155 3.31547C9.34155 2.63502 9.90451 2.08194 10.598 2.08194H16.0776ZM1.92298 11.2983H7.40258C8.09609 11.2983 8.65905 11.8514 8.65905 12.5327C8.65905 13.2132 8.09609 13.7672 7.40258 13.7672H1.92298C1.22946 13.7672 0.666504 13.2132 0.666504 12.5327C0.666504 11.8514 1.22946 11.2983 1.92298 11.2983ZM14.4674 15.3148C16.0508 15.3148 17.3332 14.054 17.3332 12.4993C17.3332 10.9438 16.0508 9.68297 14.4674 9.68297C12.885 9.68297 11.6017 10.9438 11.6017 12.4993C11.6017 14.054 12.885 15.3148 14.4674 15.3148Z" fill="white"/>
</svg>
